# xmcd
#
# Track frame offsets:
#	150
#	25857
#	33502
#	47679
#	54629
#	62507
#	74374
#	86039
#	99497
#	110489
#	121880
#	124159
#	128007
#	132322
#	135659
#	145804
#	157033
#	163936
#	174559
#	181031
#	193833
#	196241
#	202546
#	219082
#	229854
#	247969
#	253487
#	265472
#	277273
#	288676
#	294879
#	303480
#	313392
#
# Disc length: 4420 seconds
#
# Revision: 0
# Processed by: cddbd v1.5.2PL0 Copyright (c) Steve Scherf et al.
# Submitted via: EasyCDDAExtractor 11.0.0.1
#
DISCID=fa114221
DTITLE=ΞΕΝΥΧΤΙΑ VOL 01 - ΣΥΛΛΟΓΕΣ ΞΕΝΥΧΤΙΑ VOL 01
DYEAR=2000
DGENRE=ΛΑΪΚΑ
TTITLE0=Ξενύχτια VOL1_01 MSM Intro
TTITLE1=Ξενύχτια VOL1_02 Που περπατάς
TTITLE2=Ξενύχτια VOL1_03 Άσε με
TTITLE3=Ξενύχτια VOL1_04 Αστεράκι φωτεινό
TTITLE4=Ξενύχτια VOL1_05 Πρέπει
TTITLE5=Ξενύχτια VOL1_06 Δώσε μου μια ευκαιρία
TTITLE6=Ξενύχτια VOL1_07 Μην το συζητάς
TTITLE7=Ξενύχτια VOL1_08 Φεγγαράκι LIVE
TTITLE8=Ξενύχτια VOL1_09 Με τα μάτια μιλάμε LIVE
TTITLE9=Ξενύχτια VOL1_10 Έρωτα με την αγρύπια LIVE
TTITLE10=Ξενύχτια VOL1_11 Ρόδα είναι
TTITLE11=Ξενύχτια VOL1_12 Άχ
TTITLE12=Ξενύχτια VOL1_13 Υποτίθεται
TTITLE13=Ξενύχτια VOL1_14 Παράγκα
TTITLE14=Ξενύχτια VOL1_15 Κίνδυνος REMIX
TTITLE15=Ξενύχτια VOL1_16 Φταίει REMIX
TTITLE16=Ξενύχτια VOL1_17 Η βαλίτσα REMIX
TTITLE17=Ξενύχτια VOL1_18 Ότι καλύτερο REMIX
TTITLE18=Ξενύχτια VOL1_19 Γι' άλα REMIX
TTITLE19=Ξενύχτια VOL1_20 Δεν μπορείς
TTITLE20=Ξενύχτια VOL1_21 Τώρα νιώθω πόσο μ' αγαπάς
TTITLE21=Ξενύχτια VOL1_22 Σπάω τα ρολόγια
TTITLE22=Ξενύχτια VOL1_23 Δώρο Θεού
TTITLE23=Ξενύχτια VOL1_24 Τι Τι REMIX
TTITLE24=Ξενύχτια VOL1_25 Άγκυρες
TTITLE25=Ξενύχτια VOL1_26 Θα με περάσουνε τρελλό
TTITLE26=Ξενύχτια VOL1_27 Που να δείς
TTITLE27=Ξενύχτια VOL1_28 Φλέβα
TTITLE28=Ξενύχτια VOL1_29 Στα πρόθυρα
TTITLE29=Ξενύχτια VOL1_30 Θα πρωτοτυπήσω
TTITLE30=Ξενύχτια VOL1_31 Θα της κάνει καλό
TTITLE31=Ξενύχτια VOL1_32 Εξάρτυση
TTITLE32=Ξενύχτια VOL1_33 Απόψε θά 'θελα
EXTD=
EXTT0=
EXTT1=
EXTT2=
EXTT3=
EXTT4=
EXTT5=
EXTT6=
EXTT7=
EXTT8=
EXTT9=
EXTT10=
EXTT11=
EXTT12=
EXTT13=
EXTT14=
EXTT15=
EXTT16=
EXTT17=
EXTT18=
EXTT19=
EXTT20=
EXTT21=
EXTT22=
EXTT23=
EXTT24=
EXTT25=
EXTT26=
EXTT27=
EXTT28=
EXTT29=
EXTT30=
EXTT31=
EXTT32=
PLAYORDER=
